<?xml version="1.0" encoding="UTF-8" ?>
<!DOCTYPE svg PUBLIC "-//W3C//DTD SVG 1.1//EN" "http://www.w3.org/Graphics/SVG/1.1/DTD/svg11.dtd">
<svg width="384pt" height="384pt" viewBox="0 0 384 384" version="1.1" xmlns="http://www.w3.org/2000/svg">
<path fill="#261302" stroke="#261302" stroke-width="0.09375" opacity="1.00" d=" M 0.0 0.0 L 384.0 0.0 L 384.0 384.0 L 0.0 384.0 L 0.0 0.0 Z" />
<path fill="#ac7301" stroke="#ac7301" stroke-width="0.09375" opacity="1.00" d=" M 73.5 52.6 C 85.0 33.6 100.2 16.8 118.1 3.7 C 126.1 13.0 131.7 24.6 133.3 36.7 C 120.8 43.9 113.9 57.4 109.5 70.5 C 104.1 89.0 104.2 109.1 109.6 127.5 C 112.5 136.2 116.3 144.7 122.1 151.9 C 128.5 160.2 138.5 165.7 149.0 166.0 C 148.1 174.7 146.6 184.0 140.9 190.9 C 135.2 197.6 124.3 196.0 118.1 190.9 C 100.0 174.2 86.0 152.8 78.8 129.2 C 74.3 111.2 74.6 91.8 81.3 74.3 C 87.8 56.9 100.5 42.4 115.1 31.1 C 117.3 29.3 119.8 27.8 121.6 25.5 C 122.6 21.1 120.2 16.8 118.0 13.1 C 104.8 22.2 92.3 32.7 82.8 45.7 C 66.8 67.0 58.4 93.5 57.9 120.0 C 57.3 134.1 57.8 148.5 61.8 162.2 C 64.9 173.0 70.4 183.0 76.6 192.4 C 80.5 198.3 85.6 203.4 90.6 208.4 C 104.6 222.8 121.6 233.9 139.0 243.8 C 134.7 243.7 130.3 243.3 126.1 244.1 C 122.6 244.9 119.8 247.2 116.9 249.2 C 91.8 229.0 67.1 208.2 42.2 187.9 C 38.7 185.7 39.5 181.4 39.5 178.0 C 42.1 134.6 50.5 90.1 73.5 52.6 Z" />
<path fill="#ac7301" stroke="#ac7301" stroke-width="0.09375" opacity="1.00" d=" M 248.8 36.7 C 250.3 24.5 255.9 13.0 263.8 3.7 C 299.1 29.2 322.2 68.9 332.4 110.7 C 336.9 127.2 339.4 144.1 341.2 161.0 C 341.5 168.7 342.9 176.3 342.4 184.0 C 342.3 185.7 340.9 186.8 339.8 187.8 C 316.1 207.4 292.3 227.0 268.6 246.6 C 267.4 247.5 266.2 248.3 265.1 249.2 C 262.2 247.2 259.4 244.8 255.9 244.1 C 251.7 243.3 247.3 243.7 243.0 243.8 C 262.1 233.1 280.5 220.6 295.4 204.4 C 311.4 188.0 322.0 166.0 323.7 142.9 C 325.2 121.0 324.0 98.4 316.4 77.6 C 310.7 62.3 302.3 47.9 291.1 35.9 C 283.1 27.2 273.7 19.8 264.0 13.1 C 261.7 16.8 259.4 21.1 260.5 25.5 C 263.0 28.7 266.8 30.6 269.8 33.2 C 284.7 45.5 297.3 61.5 302.7 80.3 C 307.4 95.9 307.1 112.7 303.4 128.4 C 296.4 152.1 282.4 173.5 264.4 190.4 C 260.6 194.0 255.1 195.4 250.0 195.3 C 244.7 195.2 240.5 191.2 238.2 186.7 C 235.0 180.3 233.6 173.1 233.0 166.0 C 243.5 165.7 253.5 160.2 259.9 151.9 C 271.5 136.9 276.6 117.7 276.5 99.0 C 276.5 80.8 271.9 62.0 260.7 47.3 C 257.6 42.9 253.2 39.7 248.8 36.7 Z" />
<path fill="#ac7301" stroke="#ac7301" stroke-width="0.09375" opacity="1.00" d=" M 74.2 64.3 C 84.3 44.9 99.0 27.4 117.8 16.0 C 118.8 18.7 120.2 21.6 119.6 24.6 C 118.0 27.0 115.4 28.4 113.2 30.2 C 97.1 42.5 83.6 59.0 77.7 78.7 C 72.5 95.3 72.7 113.4 76.9 130.3 C 83.4 150.6 94.6 169.3 109.2 184.8 C 128.9 205.3 153.7 220.3 179.9 231.1 C 183.6 232.5 187.1 234.4 191.0 235.2 C 196.6 233.9 201.7 231.1 207.0 229.0 C 236.0 216.4 263.5 198.3 282.9 172.9 C 292.7 160.1 300.2 145.5 305.1 130.2 C 309.7 111.8 309.5 92.0 302.8 74.2 C 296.0 55.5 282.3 40.2 266.6 28.4 C 265.1 27.2 263.4 26.2 262.4 24.5 C 261.8 21.6 263.2 18.7 264.2 16.0 C 270.9 19.6 276.5 24.8 282.2 29.8 C 301.8 48.6 315.5 73.8 319.3 100.9 C 321.9 117.2 321.6 133.9 319.2 150.2 C 315.5 172.5 302.9 192.4 286.8 207.8 C 270.2 223.7 250.1 235.5 229.7 245.7 C 223.1 249.0 216.1 251.4 209.4 254.5 C 205.0 256.8 204.9 263.2 200.7 265.5 C 194.1 266.3 187.2 266.5 180.6 265.3 C 177.9 262.5 176.7 258.7 174.3 255.6 C 172.4 254.1 169.9 253.3 167.7 252.3 C 150.8 245.8 134.9 237.0 119.8 227.2 C 98.4 213.1 78.8 194.4 68.7 170.3 C 61.5 153.9 60.6 135.6 61.0 118.0 C 61.7 99.4 65.7 80.9 74.2 64.3 Z" />
<path fill="#ac7301" stroke="#ac7301" stroke-width="0.09375" opacity="1.00" d=" M 185.5 156.6 C 196.4 155.6 207.4 157.6 217.6 161.4 C 221.0 162.3 221.8 166.1 223.1 168.9 C 227.1 179.3 230.5 190.9 227.0 202.0 C 224.2 211.0 216.0 217.2 207.3 220.2 C 200.4 222.5 193.1 224.9 185.8 223.3 C 177.8 221.6 169.6 219.1 163.1 213.8 C 157.8 209.5 154.3 202.9 153.7 196.0 C 152.8 185.9 156.0 176.0 159.8 166.7 C 160.7 164.8 161.5 162.4 163.8 161.6 C 170.7 158.8 178.1 157.3 185.5 156.6 Z" />
<path fill="#ac7301" stroke="#ac7301" stroke-width="0.09375" opacity="1.00" d=" M 151.5 165.5 C 153.7 164.9 156.0 164.4 158.3 164.0 C 155.5 172.2 152.0 180.3 151.5 189.0 C 150.5 197.8 153.0 207.3 159.5 213.6 C 166.6 220.7 176.7 223.7 186.4 225.5 C 192.5 226.8 198.6 225.1 204.4 223.5 C 212.7 221.2 220.8 216.9 225.8 209.7 C 230.9 202.3 231.6 192.7 229.9 184.1 C 228.8 177.1 225.9 170.7 223.7 164.0 C 226.0 164.5 228.3 165.0 230.5 165.5 C 232.6 175.5 233.3 187.3 241.6 194.3 C 245.5 198.0 251.1 197.5 256.1 197.4 C 238.7 211.8 218.5 222.2 197.7 230.7 C 194.6 231.9 191.2 233.8 188.0 232.1 C 165.8 223.5 144.3 212.6 125.9 197.4 C 130.9 197.5 136.5 198.0 140.4 194.3 C 148.8 187.3 149.4 175.5 151.5 165.5 Z" />
<path fill="#ac7301" stroke="#ac7301" stroke-width="0.09375" opacity="1.00" d=" M 35.6 201.8 C 40.0 200.7 44.6 200.7 49.0 200.9 C 50.9 200.9 52.4 202.1 53.8 203.2 C 73.4 219.7 93.7 235.3 113.2 252.0 C 105.9 251.2 98.3 250.0 91.2 252.1 C 86.5 253.3 82.6 256.1 78.8 259.0 C 74.1 248.1 66.2 239.2 59.0 230.0 C 51.3 220.5 43.4 211.2 35.6 201.8 Z" />
<path fill="#ac7301" stroke="#ac7301" stroke-width="0.09375" opacity="1.00" d=" M 317.8 211.8 C 322.4 208.4 326.4 204.2 331.3 201.2 C 336.2 200.5 341.5 200.6 346.4 201.8 C 337.4 212.7 328.2 223.4 319.5 234.4 C 313.6 242.2 307.0 249.6 303.4 258.8 C 299.2 256.2 295.1 253.1 290.2 251.9 C 283.2 250.1 275.9 251.2 268.8 252.0 C 284.8 238.2 301.5 225.3 317.8 211.8 Z" />
<path fill="#ac7301" stroke="#ac7301" stroke-width="0.09375" opacity="1.00" d=" M 73.4 252.7 C 75.5 256.4 77.4 260.5 77.0 264.9 C 76.6 269.6 73.9 273.6 70.9 277.1 C 70.0 276.6 69.1 276.2 68.1 275.7 C 68.0 273.3 67.7 270.7 68.6 268.3 C 69.7 265.7 71.9 263.5 72.5 260.7 C 73.1 258.0 73.1 255.3 73.4 252.7 Z" />
<path fill="#ac7301" stroke="#ac7301" stroke-width="0.09375" opacity="1.00" d=" M 305.0 265.0 C 304.6 260.6 306.5 256.4 308.6 252.7 C 308.9 255.4 308.9 258.0 309.4 260.7 C 310.1 263.5 312.3 265.6 313.4 268.3 C 314.3 270.7 314.1 273.2 313.8 275.7 C 312.9 276.1 312.0 276.6 311.1 277.0 C 308.1 273.6 305.4 269.7 305.0 265.0 Z" />
<path fill="#ac7301" stroke="#ac7301" stroke-width="0.09375" opacity="1.00" d=" M 84.3 260.3 C 88.3 256.8 93.8 255.4 98.9 255.2 C 106.0 254.9 113.0 256.1 119.6 258.4 C 124.1 259.8 127.3 263.3 130.8 266.2 C 135.1 269.7 139.9 272.4 144.2 275.8 C 146.2 277.2 146.5 279.8 147.1 282.0 C 151.3 298.6 154.9 315.4 158.9 332.1 C 161.4 346.8 166.1 361.3 166.0 376.4 C 160.6 377.2 157.5 371.3 156.2 367.0 C 152.0 346.6 147.3 326.3 140.2 306.7 C 135.6 294.2 130.2 281.7 121.4 271.6 C 117.0 266.6 110.9 262.4 104.0 262.7 C 95.8 262.5 88.7 267.5 83.0 273.1 C 79.5 276.3 77.1 280.6 73.0 283.2 C 74.9 278.0 79.0 274.1 80.9 268.9 C 82.1 266.1 82.4 262.8 84.3 260.3 Z" />
<path fill="#ac7301" stroke="#ac7301" stroke-width="0.09375" opacity="1.00" d=" M 264.0 257.9 C 274.0 255.0 285.8 253.2 295.4 258.6 C 299.4 260.5 299.6 265.3 301.2 268.9 C 303.0 274.0 307.1 278.0 309.0 283.2 C 304.9 280.6 302.4 276.3 299.0 273.1 C 293.3 267.6 286.2 262.4 278.0 262.7 C 271.1 262.4 265.0 266.6 260.6 271.6 C 253.4 279.9 248.4 290.0 244.3 300.2 C 236.0 321.2 230.7 343.2 226.2 365.3 C 225.5 369.5 223.2 373.4 219.8 376.1 C 218.5 376.3 217.2 376.4 215.9 376.4 C 215.7 369.6 217.0 362.9 218.2 356.3 C 220.9 343.3 223.2 330.4 226.5 317.6 C 229.9 304.2 232.2 290.5 236.3 277.4 C 239.3 274.0 243.6 272.0 247.2 269.2 C 252.9 265.6 257.1 259.5 264.0 257.9 Z" />
<path fill="#ac7301" stroke="#ac7301" stroke-width="0.09375" opacity="1.00" d=" M 90.5 269.4 C 96.0 265.3 103.5 263.3 110.1 265.9 C 117.6 268.9 122.4 275.9 126.6 282.4 C 137.6 300.8 143.4 321.7 148.6 342.4 C 150.3 349.7 152.4 357.0 153.1 364.4 C 149.5 361.1 146.9 356.9 144.0 352.9 C 137.9 344.8 132.5 336.2 127.7 327.3 C 125.8 323.7 124.1 319.8 123.0 315.8 C 121.5 310.1 122.6 304.0 120.6 298.4 C 118.4 291.3 115.6 283.2 108.5 279.6 C 103.2 277.5 97.1 278.5 92.0 281.1 C 89.0 282.4 86.2 284.4 82.9 285.3 C 80.8 285.1 78.7 284.4 76.6 283.8 C 80.0 278.0 85.2 273.4 90.5 269.4 Z" />
<path fill="#ac7301" stroke="#ac7301" stroke-width="0.09375" opacity="1.00" d=" M 262.6 272.6 C 266.7 268.0 272.6 264.3 279.0 264.7 C 286.8 264.9 293.2 270.2 298.6 275.4 C 301.2 277.9 303.6 280.6 305.3 283.8 C 302.5 284.5 299.4 286.2 296.6 284.5 C 290.8 281.6 284.8 277.7 278.0 278.6 C 272.1 278.7 267.9 283.5 265.3 288.3 C 262.3 294.4 260.0 301.1 260.0 308.0 C 259.9 314.3 257.8 320.4 255.0 326.0 C 249.9 335.6 244.1 344.8 237.6 353.5 C 234.8 357.3 232.2 361.2 228.8 364.5 C 229.4 358.6 231.0 352.9 232.2 347.2 C 236.1 331.1 240.4 315.0 246.7 299.7 C 250.8 290.1 255.6 280.5 262.6 272.6 Z" />
</svg>
